Coordinates
version=1
nRows=12
nColumns=24
inDegrees=yes

Units are S.I. units (second, meters, Newtons, ...)
Angles are in degrees.

endheader
time	pelvis_tilt	pelvis_list	pelvis_rotation	pelvis_tx	pelvis_ty	pelvis_tz	hip_flexion_r	hip_adduction_r	hip_rotation_r	knee_angle_r	ankle_angle_r	subtalar_angle_r	mtp_angle_r	hip_flexion_l	hip_adduction_l	hip_rotation_l	knee_angle_l	ankle_angle_l	subtalar_angle_l	mtp_angle_l	lumbar_extension	lumbar_bending	lumbar_rotation
      0.72883333	     -0.22448158	      0.83230716	      0.52934254	     -0.40787550	      1.00580764	      0.30426813	     10.38612261	      2.06431192	      0.47378368	    -22.33330699	     14.97124968	     -4.70925401	      2.17147894	     15.67015467	      0.57922113	     -3.53177325	    -68.60104792	     -9.35667688	     -7.04364050	      4.96599775	    -13.15593802	      6.33284992	      0.95748644
      0.73300000	     -0.19994661	      0.91909504	      0.64413127	     -0.40271965	      1.00665297	      0.30427317	      9.83833421	      1.98248546	      0.45252619	    -21.94185872	     14.98741963	     -4.84522505	      2.09123577	     16.15693612	      0.69187483	     -3.43700555	    -68.37711256	     -8.54258990	     -7.41834127	      4.82367207	    -13.21987302	      6.15359998	      1.14721530
      0.73716667	     -0.16715471	      0.99921933	      0.75398026	     -0.39754482	      1.00752012	      0.30427321	      9.26957266	      1.90955236	      0.43741582	    -21.52388374	     14.98577715	     -4.96998222	      2.01362671	     16.61817903	      0.79417234	     -3.35473298	    -68.08616429	     -7.75080415	     -7.78157624	      4.69238037	    -13.29177812	      5.99344137	      1.31067207
      0.74133333	     -0.19380355	      1.11419129	      0.84678744	     -0.39238825	      1.00825969	      0.30426765	      8.79545398	      1.79429675	      0.40527961	    -21.17129056	     15.03033908	     -5.02697151	      1.99099883	     17.13089464	      0.93537376	     -3.29985208	    -67.73172907	     -6.98799384	     -8.17112124	      4.66463748	    -13.27217870	      5.81790572	      1.37910717
      0.74550000	     -0.12219697	      1.20325281	      0.94549120	     -0.38722039	      1.00917381	      0.30429890	      8.16769806	      1.72187028	      0.42279108	    -20.71064575	     14.97600698	     -5.21046898	      1.91266274	     17.51650844	      1.04329383	     -3.23279229	    -67.30246575	     -6.25319112	     -8.48442065	      4.53741560	    -13.40993365	      5.61254592	      1.64565320
      0.74966667	     -0.15798992	      1.31039559	      1.02915808	     -0.38206724	      1.00986811	      0.30429818	      7.70014634	      1.61886753	      0.40007432	    -20.34636735	     14.98521332	     -5.28322243	      1.88298177	     18.01043946	      1.17406038	     -3.19071412	    -66.82881991	     -5.52146715	     -8.83535912	      4.49687289	    -13.38885632	      5.43934590	      1.73079146
      0.75383333	     -0.09848216	      1.41903162	      1.10354657	     -0.37687732	      1.01074975	      0.30435037	      7.08111447	      1.52967525	      0.44204538	    -19.87447745	     14.91628890	     -5.48499973	      1.80048568	     18.36915309	      1.29683722	     -3.15670003	    -66.26074769	     -4.84939230	     -9.11485275	      4.35623535	    -13.49717754	      5.21711004	      1.99138029
      0.75800000	     -0.13044070	      1.53177938	      1.17581391	     -0.37172419	      1.01142867	      0.30434540	      6.60711090	      1.42089057	      0.42240208	    -19.50172726	     14.89998375	     -5.54776492	      1.77083615	     18.82309659	      1.43539121	     -3.12300092	    -65.65916979	     -4.15624920	     -9.42568139	      4.31268103	    -13.48335706	      5.03295056	      2.07231894
      0.76216667	     -0.06225916	      1.62549503	      1.22410082	     -0.36653096	      1.01229771	      0.30441728	      5.96917532	      1.35415256	      0.51004991	    -19.00215541	     14.79030143	     -5.77772696	      1.62822959	     19.13562833	      1.53644843	     -3.10904058	    -64.97030018	     -3.50474395	     -9.66661984	      4.03280844	    -13.60774498	      4.83672148	      2.38269137
      0.76633333	     -0.04943485	      1.77253416	      1.29831543	     -0.36135558	      1.01304195	      0.30439094	      5.42615770	      1.20870634	      0.49103290	    -18.58809988	     14.74728301	     -5.87245074	      1.56048838	     19.49215678	      1.72308596	     -3.05891676	    -64.21341692	     -2.90825241	     -9.88340338	      3.90195805	    -13.65080329	      4.59581658	      2.49415789
      0.77050000	     -0.09866021	      1.89456589	      1.35348373	     -0.35619701	      1.01362820	      0.30437404	      4.97192914	      1.08775360	      0.46892697	    -18.21390815	     14.69785867	     -5.92460394	      1.52671936	     19.91019537	      1.87563944	     -3.03180414	    -63.43191242	     -2.27627909	    -10.12728599	      3.84141607	    -13.62446282	      4.39519473	      2.58626785
      0.77466667	     -0.05117764	      2.00715065	      1.40445639	     -0.35100283	      1.01439115	      0.30439082	      4.36396946	      0.98962009	      0.50495821	    -17.73164205	     14.60802778	     -6.07736223	      1.45220741	     20.19061343	      2.01135510	     -2.99957112	    -62.56157637	     -1.72336482	    -10.28425680	      3.68113747	    -13.71434014	      4.17916935	      2.82174173
